<svg width="100" height="100" viewBox="0 0 100 100" fill="none" xmlns="http://www.w3.org/2000/svg">
<rect width="100" height="100" fill="white"/>
<path d="M48.5249 72.2593C46.3971 70.7395 47.613 68.3078 50.9566 65.5721C52.7804 64.3562 53.0843 65.876 54.3002 66.18C55.5161 66.484 55.5161 69.2197 53.9962 71.0435C52.4764 72.8672 50.6526 73.7791 48.5249 72.2593Z" fill="black"/>
<path d="M32.4146 84.114C31.4419 84.6004 28.767 79.0479 27.5511 76.2109C27.0298 74.9946 23.5235 79.5541 24.5114 83.5056C26.3352 90.8008 38.4938 90.5442 41.5335 88.6736C45.485 86.2418 45.1811 56.1492 44.2692 47.0303C57.9477 58.5809 57.6437 68.6118 57.0358 72.8673C56.4278 77.1228 55.188 81.0739 54.604 81.9863C49.7405 89.585 52.1486 93.3969 53.6921 93.537C57.0358 93.8405 59.468 87.4572 60.6834 86.2418C66.7627 80.1625 68.0187 71.9549 67.6746 68.6118C65.5467 47.9416 47.3089 44.9025 43.6613 45.2065C43.0534 43.3827 43.0534 23.321 42.7494 17.2416C42.7494 16.3299 55.8199 15.1139 61.5953 14.8099L54.604 24.2329C53.996 24.841 56.6102 28.4884 59.7715 28.4884C63.723 28.4884 75.6792 7.51495 74.9697 6.90677C72.8419 5.08312 36.67 7.51424 35.1502 8.12265C34.7267 8.29216 36.8389 29.5891 37.2779 49.1575C37.6249 64.6239 36.3305 79.1245 36.0621 80.4664C35.4542 83.5061 33.6304 83.5061 32.4146 84.114Z" fill="black"/>
</svg>
